<svg width="128" height="128" viewBox="0 0 128 128" fill="none" xmlns="http://www.w3.org/2000/svg">
<rect width="128" height="128" rx="16" fill="#09090B"/>
<path d="M29.0098 82C26.5098 82 24.5598 81.3167 23.1598 79.95C21.7598 78.5833 21.0598 76.6833 21.0598 74.25V59.4H13.4598V54.5H21.0598V46.75H26.4598V54.5H37.2098V59.4H26.4598V74.25C26.4598 76.15 27.3764 77.1 29.2098 77.1H36.7098V82H29.0098Z" fill="#FAFAFA"/>
<path d="M49.0117 82.6C47.4117 82.6 46.1317 82.14 45.1717 81.22C44.2117 80.26 43.7317 78.98 43.7317 77.38C43.7317 75.74 44.2117 74.44 45.1717 73.48C46.1317 72.48 47.4117 71.98 49.0117 71.98C50.6517 71.98 51.9317 72.48 52.8517 73.48C53.8117 74.44 54.2917 75.74 54.2917 77.38C54.2917 78.98 53.8117 80.26 52.8517 81.22C51.9317 82.14 50.6517 82.6 49.0117 82.6Z" fill="#00DC82"/>
<path d="M75.0195 82C72.5195 82 70.5695 81.3167 69.1695 79.95C67.7695 78.5833 67.0695 76.6833 67.0695 74.25V59.4H59.4695V54.5H67.0695V46.75H72.4695V54.5H83.2195V59.4H72.4695V74.25C72.4695 76.15 73.3862 77.1 75.2195 77.1H82.7195V82H75.0195ZM98.45 82L89.35 54.5H94.85L100.5 72.1C100.867 73.1333 101.183 74.1833 101.45 75.25C101.75 76.2833 101.967 77.1 102.1 77.7C102.267 77.1 102.483 76.2833 102.75 75.25C103.05 74.1833 103.35 73.1333 103.65 72.1L109.2 54.5H114.65L105.55 82H98.45Z" fill="#FAFAFA"/>
</svg>
